<?xml version="1.0" encoding="UTF-8"?>
<!DOCTYPE svg PUBLIC "-//W3C//DTD SVG 1.1//EN" "http://www.w3.org/Graphics/SVG/1.1/DTD/svg11.dtd">
<!-- Creator: CorelDRAW (OEM Version) -->
<svg xmlns="http://www.w3.org/2000/svg" xml:space="preserve" width="196.276mm" height="90.942mm" version="1.1" style="shape-rendering:geometricPrecision; text-rendering:geometricPrecision; image-rendering:optimizeQuality; fill-rule:evenodd; clip-rule:evenodd"
viewBox="0 0 54820.33 25400.36"
 xmlns:xlink="http://www.w3.org/1999/xlink"
 xmlns:xodm="http://www.corel.com/coreldraw/odm/2003">
 <defs>
  <style type="text/css">
   <![CDATA[
    .fil2 {fill:none}
    .fil0 {fill:#009933}
    .fil3 {fill:#009933;fill-rule:nonzero}
    .fil1 {fill:#009933;fill-rule:nonzero}
   ]]>
  </style>
   <clipPath id="id0">
    <path d="M-0 0l19627.56 0 0 25400.36 -19627.56 0 0 -25400.36z"/>
   </clipPath>
 </defs>
 <g id="Layer_x0020_1">
  <metadata id="CorelCorpID_0Corel-Layer"/>
  <g>
  </g>
  <g style="clip-path:url(#id0)">
   <g id="_1383077168">
    <g>
     <path id="path20" class="fil0" d="M11388.99 6378.19c2520.6,2659.44 4447.87,5458.58 4108.71,8889.46 -522.27,5282.68 -5646.41,5969.12 -5417.33,5889.63 1095.15,-131.94 4342.27,-2040.39 4338.27,-5835.08 -3.74,-3545.02 -1826.08,-6380.79 -3403.17,-8725.87 -1303.31,-1938 -1153.6,-3557.65 -1191.11,-5614.15 119.21,426.05 -219.95,3513.1 1564.6,5396.02l0.03 0zm0 0l0 0 0 0z"/>
    </g>
    <path id="path22" class="fil0" d="M13090.59 19630.58c747.05,-1636.1 1037.53,-2651.11 1037.53,-4526.55 0,-3544.88 -3278.62,-7962.34 -4772.7,-9816.57 1494.07,1854.26 4114.83,6605.82 3942.69,10143.78 -133.26,2738.34 -705.52,3326.78 -1452.57,4962.85l1245.05 -763.5z"/>
    <path id="path24" class="fil0" d="M12783.97 17163.13c109.96,-581.7 173.08,-1406.93 99.12,-2495.38 -257.88,-3795.22 -2511.46,-6943.58 -4014.28,-8843.2 1455.31,1988.89 3323.37,5901.5 3414.48,9309.41 31.37,1172.21 47.09,1762.43 -82.53,2600.45l583.21 -571.29z"/>
    <path id="path26" class="fil0" d="M9711.75 14180.68c4.11,-26.98 7.74,-64.52 11.73,-162.44 98.01,-2410.05 -1138.66,-5032.31 -2174.29,-6676.54l-23.85 23.46c885.73,1587.17 1631.94,3996.8 1631.94,6391.01 0,448.03 -18.8,834.72 -54.44,1191.67l608.91 -767.16z"/>
    <path id="path28" class="fil0" d="M7116.47 7857.35c831.18,2113.82 1560.33,6045.82 877.77,8983.36 -396.86,1707.94 -403.06,1775.42 -713.9,2708.09 -96.22,-87.09 -183.56,-171.66 -278.13,-265.34 484.06,-1445.76 628.85,-2358.35 798.83,-3544.46 185.6,-1295.13 97.84,-2707.87 -129.96,-4057.13l-271.23 396.86c93.9,1195.58 66.56,2427.7 -145.38,3575.86 -248.66,1347.02 -368.71,2009.47 -744.73,3133.41 -120.6,-140.38 -486.74,-613.96 -598.96,-766.24l-19.66 1506.31c578.46,526.54 1075.48,799.48 1728.74,1098.02 645.08,-1672.88 827.13,-2575.98 1063.22,-4223.39 424.26,-2960.72 -631.78,-6535.3 -1541.36,-8562.06l-25.25 16.7z"/>
    <path id="path30" class="fil0" d="M8735.67 10068.76c-1485.78,2272.27 -3296.72,5945.02 -3156.93,8817.67 6.4,131.19 14.5,260 24.22,386.36l-747.44 -1018.28c183.06,-2841.35 2291.01,-6102.66 3866.03,-8246.67l14.13 60.92z"/>
    <path id="path32" class="fil0" d="M8969.31 8581.38c-1492.93,2181.91 -3690.99,5746.15 -4338.1,9158.56 -428.31,-1080.48 -864.5,-2302.94 -795.54,-3723.11 214.17,-4410.44 4523.67,-7416.97 6017.78,-9271.23 -1249.8,1551.08 -4217.33,4747.98 -5053.48,7822.8 1105.34,-2294.95 2900.76,-4098.85 4154.04,-5492.97l43.46 59.44c-1383.81,1830.19 -3381.58,4557.02 -4127.96,7246.37 1099.31,-2436.75 2838.81,-4380.61 4069.58,-5882.76l30.22 82.9z"/>
    <path id="path34" class="fil0" d="M9690.02 14715.46c-180.68,78.71 -706.78,737.72 -649.57,1039.06 62.2,327.65 455.4,-159.59 618.04,-370.69 -460.01,564.22 -551.43,687.59 -496.88,1012.81 309.91,-501.88 511.38,-705.57 572.54,-938.07l-16.59 -266.32c-233.05,301.31 -398.12,405.94 -455.54,300.36 -77.79,-143.2 290.53,-599.94 428,-777.16z"/>
    <path id="path36" class="fil0" d="M12634.07 17687.72c-175.57,78.2 -740.68,732.83 -726.08,1032.25 15.89,325.53 437.58,-158.56 613.21,-368.26 -492.58,560.53 -591.93,683.06 -582.77,1006.19 347.17,-498.58 557.46,-700.94 642.73,-931.98l18.24 -264.53c-251.46,299.36 -415.99,403.29 -455.38,298.38 -53.35,-142.19 341.7,-595.95 490.04,-772.05z"/>
    <g>
     <path id="path38" class="fil0" d="M7894.77 21811.07c-24.63,-8.13 -318.99,-176.21 -321.28,-182.27 -94.8,-248.05 -121.11,-558.13 -178.17,-817.13 101.05,57.31 212.77,106.27 311.31,165.18l50.97 212.88c48.51,206.6 98.45,413.37 137.17,621.34l0 0zm0 0l0 0 0 0z"/>
    </g>
    <g>
     <path id="path40" class="fil0" d="M5704.93 20485.27c613.4,634.77 1499.88,1282.06 2385.89,1647.02l-213.53 -1074.48c75.05,34.05 230.84,80.97 289.02,121.36l69.99 357.93c65.69,339.49 139.74,680.77 186.38,1022.3 -997.67,-363.99 -2155.74,-1313.67 -2717.78,-2074.16l0.03 0.03zm0 0l0 0 0 0z"/>
    </g>
    <g>
     <path id="path42" class="fil1" d="M9435.6 24161.46c0,-0.31 -35.44,-432.56 -35.44,-432.56 -39.8,-476.43 -80.75,-968.87 -95.72,-1452.12 238.55,44.52 1341.83,-63.18 1469.33,-200.51 1.37,-1.51 2.35,-3.32 2.74,-5.31l191.63 -878.99c0.89,-4.02 -0.47,-8.27 -3.63,-11 -3.1,-2.68 -7.49,-3.49 -11.37,-2.07 -132.14,48.51 -255.65,88.57 -377.62,122.42 -4.36,1.26 -7.54,4.92 -8.21,9.33 0,0 -61.61,425.46 -63.57,439.06 -11.4,3.66 -55.58,17.76 -55.58,17.76 0,0 -42.68,12.96 -62.51,18.94 3.13,-31.2 41.81,-419.21 41.81,-419.21 0.03,-0.36 0.06,-0.73 0.06,-1.12 0,-3.27 -1.42,-6.34 -3.85,-8.52 -2.74,-2.4 -6.51,-3.35 -10.05,-2.57 -108.29,24.86 -220.73,41.92 -326.09,56.67 -5.42,0.75 -9.52,5.28 -9.78,10.73 0,0 -18.74,398.01 -19.58,416.55 -15.67,1.68 -117.28,12.51 -137.17,14.64 -0.06,-23.77 -0.5,-405.32 -0.5,-405.32 0,-3.13 -1.31,-6.17 -3.63,-8.3 -2.35,-2.18 -5.45,-3.24 -8.57,-3.02l-12.04 0.89c-102.78,7.85 -209.06,15.95 -310.95,5.11 -3.21,-0.34 -6.4,0.7 -8.8,2.85 -2.4,2.15 -3.77,5.2 -3.77,8.41 0,0 -1.87,387.14 -2.01,409.68 -103.54,-4.58 -205.32,-9.89 -308.55,-22.43 -1.06,-0.14 -1.96,0.39 -2.99,0.53 -1.26,-0.22 -4.69,-0.81 -4.92,-0.84 -1.34,-16.14 -33.35,-402.42 -33.35,-402.42 -0.45,-5.45 -4.72,-9.8 -10.14,-10.39 -106.58,-11.09 -202.72,-25.11 -293.8,-42.71 -3.52,-0.67 -7.23,0.39 -9.83,2.74 -2.35,2.23 -3.71,5.25 -3.71,8.41 0,0.39 0.06,0.78 0.08,1.17 0,0 36.48,351.67 39.55,381.05 -26.59,-6.31 -213.39,-50.81 -225.98,-53.82 -2.68,-13.88 -76.17,-395.58 -76.17,-395.58 -0.84,-4.27 -4.02,-7.68 -8.21,-8.8 -115.83,-31.14 -232.77,-73.57 -326.78,-107.67 -3.85,-1.4 -8.21,-0.61 -11.31,2.12 -2.51,2.18 -3.91,5.33 -3.91,8.55 0,0.81 0.11,1.59 0.25,2.37l180.99 861.59c0.87,4.13 3.94,7.43 7.96,8.57 184.84,53.12 349.3,98.17 502.72,137.84 1.12,15.45 56.48,774.42 59.88,821.07 -168.67,-132.33 -424.4,-229.56 -672.95,-323.38 -146.38,-55.27 -284.67,-107.48 -402.5,-165.4 -459.48,-225.9 -919.97,-535.42 -1296.64,-871.54 -4.64,-4.11 -11.67,-3.77 -15.92,0.78 -2.01,2.18 -3.02,4.97 -3.02,7.74 0,2.93 1.17,5.95 3.49,8.18 0.11,0.08 0.22,0.17 0.34,0.28l0 0c383.99,368.12 785.65,694.77 1193.94,970.88 236.18,159.71 455.63,262.27 649.24,352.7 465.26,217.38 801.4,374.46 914.44,1127.6l22.68 -1.65zm0 0l0 0 0 0z"/>
    </g>
    <g>
     <path id="path44" class="fil1" d="M9396.31 23960.27c-141.89,-594.75 -461.05,-745.77 -888.18,-945.33 -192.86,-90.1 -411.47,-192.27 -646.11,-351 -298.38,-201.77 -593.07,-431.16 -880.03,-683.54 303.85,231.82 639.52,441.49 975.05,606.48 118.84,58.43 257.63,110.8 404.54,166.24 256.57,96.83 521.85,196.99 686.83,334.94 3.49,2.96 8.38,3.52 12.46,1.42 3.83,-1.93 6.2,-5.87 6.2,-10.11 0,-0.28 -62.34,-854.92 -62.34,-854.92 -0.36,-4.92 -3.77,-8.97 -8.52,-10.19 -153.56,-39.63 -318.43,-84.8 -503.42,-137.89 -2.74,-12.93 -167.47,-797.21 -175.4,-834.95 89.1,32.26 195.54,70.16 302.54,99.32 2.54,13.18 76.25,396 76.25,396 0.84,4.36 4.19,7.85 8.52,8.88l248.72 59.18c3.58,0.84 7.35,-0.06 10.14,-2.49 2.46,-2.21 3.88,-5.31 3.88,-8.57 0,-0.39 -0.06,-0.78 -0.08,-1.15 0,0 -36.81,-354.63 -39.66,-382.14 84.6,15.92 173.61,28.91 271.37,39.33 1.45,17.57 33.29,401.64 33.29,401.64 0.39,4.97 4.72,9.22 9.61,10.28l8.27 1.82 28.8 3.04c0.89,0.08 1.54,-0.42 2.26,-0.56 100.41,11.26 199.51,16.79 300.25,21.17 3.1,0.17 6.14,-0.98 8.35,-3.1 2.23,-2.12 3.52,-5.11 3.52,-8.18 0,0 1.9,-387.37 1.98,-409.77 100.02,9.19 202.8,2.01 302.4,-5.64 0.03,23.1 0.47,405.72 0.47,405.72 0,3.21 1.4,6.28 3.8,8.43 2.37,2.18 5.59,3.21 8.74,2.85l159.43 -16.95c5.59,-0.61 9.92,-5.17 10.14,-10.78 0,0 18.8,-399.18 19.63,-417.03 98.31,-13.85 202.08,-30.08 303.32,-52.56 -2.85,28.32 -41.98,420.91 -41.98,420.91 -0.06,0.47 -0.06,0.95 -0.06,1.4 0,3.35 1.15,6.56 3.71,8.63 2.93,2.4 6.45,3.3 10.08,2.18l80.55 -24.33 61.25 -19.63c4.13,-1.34 7.71,-5.06 8.35,-9.36 0,0 61.53,-425.04 63.54,-438.87 114.12,-31.92 230.15,-69.6 352.87,-114.18 -8.21,37.65 -184.9,847.88 -186.49,855.34 -129.35,131.08 -1263.2,239.11 -1459.92,189.79 -3.44,-0.87 -7.15,-0.08 -9.89,2.15 -2.68,2.18 -4.22,5.42 -4.22,8.88 0,0.14 0,0.22 0,0.34 14.58,488.33 56.14,986.05 96.36,1467.35 0,0 9.44,115.21 18.8,229.5l0 0.03zm0 0l0 0 0 0z"/>
    </g>
    <path id="path46" class="fil1" d="M9582.91 21465.57c0.39,0.06 0.78,0 1.2,0.06 -0.42,0 -0.81,0 -1.2,-0.06z"/>
    <g>
     <path id="path48" class="fil0" d="M9424.21 24161.4c-160.91,-1071.57 -761.16,-941.95 -1568.59,-1488.01 -429.57,-290.53 -831.07,-623.18 -1192.76,-969.93 367.76,328.12 832.8,643.9 1299.21,873.21 329.13,161.83 833.75,285.31 1093.61,502.72l-62.28 -854.11c-171.16,-44.16 -341,-91.22 -510.31,-139.85l-180.99 -861.62c107.59,39.05 215.79,77.87 327.68,107.95l77.56 402.78 248.69 59.21 -41.17 -396.97c97.14,18.77 195.79,32.54 294.78,42.87l34.05 410.8c7.99,1.26 25.14,6.76 32.82,5.03 7.04,-1.65 -15.7,-0.84 -15.7,-2.74 108.09,13.1 214.73,18.43 321.25,23.13l2.04 -421.61c106.92,11.34 218.25,2.12 325.05,-6.01l0.5 417.95 159.43 -17.01 20.03 -426.33c109.88,-15.36 219.67,-32.15 327.04,-56.78l-43.46 436.13c48.93,-10.7 93.29,-31.11 141.33,-43.91l64.57 -446.05c128.54,-35.69 254.61,-77.23 378.48,-122.7l-191.63 878.94c-126.16,135.94 -1267.7,245.98 -1472.93,194.56 18.88,631.89 81.98,1267.42 131.72,1898.34l0 0zm0 0l0 0 0 0z"/>
    </g>
    <g>
     <path id="path50" class="fil0" d="M9631.81 24482.32c2.12,-664.15 161.86,-1697.32 890,-2094.13 102.73,-55.94 211.54,-103.45 322.73,-147.11 8.94,-3.52 68.76,-23.63 72.51,-28.07 12.54,-14.86 219.62,-1085.82 230.82,-1097.97l84.88 -35.67 251.62 -114.88 -339.44 1538.48c-11.12,11.7 -398.51,125.85 -449.15,142.72 -810.65,270.06 -989.1,1186.79 -1064,1836.61l0.03 0zm0 0l0 0 0 0z"/>
    </g>
    <g>
     <path id="path52" class="fil0" d="M9969.3 20021.99l17.88 11.76c188.78,-98.98 304.33,-169.51 512.97,-369.41 370.1,-1260.83 494.59,-1669.87 698.73,-3773.88 302.93,-3121.71 -1319.85,-7330.92 -2732.75,-9532.47 1508.82,2102.28 3503.91,5936.83 3503.91,9083.82 0,1875.43 -74.96,2647.68 -705.55,4744.71l-22.99 20.72c-1141.73,1115.4 -2599.25,705.97 -2599.25,705.97 237.49,-184.73 369.43,-290.31 426.58,-625.41 -478.98,-321.45 -709.68,-1260.55 -491.24,-2211.49 295.42,-1285.97 1001.8,-1563.54 1453.07,-2701.08 19.52,-242.3 35.5,-488.56 47.68,-739.15 127.22,-2613.8 -894.5,-5658.68 -2034.16,-7818.75l47.98 -47.12c1312.33,2189.18 2674.32,5318.6 2674.32,7962.64 0,1517.15 -313.07,3483.19 -797.19,5289.13l0 0zm46.95 -3898.84c-228.78,437.89 -448.7,861.65 -525.98,1570.8 -38.18,350.55 -21.34,690.97 38.26,992.22 202.66,-802.66 370.1,-1653.31 487.72,-2563.02z"/>
    </g>
    <path id="path54" class="fil0" d="M5364.46 19749.25c-619.27,-697 -1340.88,-1153.94 -1564.49,-2260.03 118.9,667.81 721.3,1069.93 1258.62,1570.72 229.39,213.78 195.43,438.67 413.76,642.68 0,0 224.48,188.86 322.79,286.98l-128.09 -470.09c41.62,37.34 373.4,324.97 381,336.64 186.24,285.64 -80.3,344.74 356.22,667.48l-113.45 -464.9c81.31,65.41 305.47,204.92 349.07,266.26 165.88,233.33 -94.8,323.15 334.3,627.57l-108.43 -469.45 330.42 211.93c12.21,14.3 181.8,773.36 197.13,852.04 -623.63,-266.15 -1408.52,-1017.53 -2027.96,-1796.87l-0.89 -0.95z"/>
    <g>
     <path id="path56" class="fil0" d="M12761.99 20254.23l-7.76 -60.83 95.63 -69.99c289.16,-215.68 554.36,-451.3 825.45,-681.83 253.52,-215.59 512.69,-427.19 753.98,-652.14 537.38,-500.79 1086.96,-638.99 1205.89,-1306.83 -250.93,1240.94 -927.84,1378.05 -2089.21,2175.18 162.47,-103.01 458.39,-263.05 668.18,-263.05l39.02 1.73c-705.41,944.6 -1632.19,1801.06 -2797.83,2378.01l75.72 -397.22c62.9,-46.11 168.5,-66.53 231.85,-114.71 8.13,-6.17 94.46,-480.18 110.16,-500.68l335.61 -198.81 -70.3 362.28c151.1,-196.41 722.17,-817.3 1015.38,-817.3 102.34,0 109.18,70.5 99.32,138.93 58.85,-50.36 452.69,-401.13 452.69,-440.91 0,-10.81 -8.99,-26.25 -12.6,-36.7l-20.28 -0.56c-203.92,0 -741.21,369.69 -910.89,485.4l0 0.03zm131.97 230.79l-6.56 -48.99c-11.03,-3.44 -31.34,-13.41 -42.98,-13.41 -153.64,0 -514.76,444.31 -588.13,555.48 121.27,-75.72 637.68,-389.63 637.68,-493.11l0 0.03zm0 0l0 0 0 0z"/>
    </g>
   </g>
  </g>
  <polygon class="fil2" points="-0,0 19627.56,0 19627.56,25400.36 -0,25400.36 "/>
  <path class="fil3" d="M23560.34 9732.87l-5186.07 0 0 1985.9 2901.09 0 0 4340.67c0,432.67 -342.96,791.57 -761.66,791.57 -374.85,0 -673.93,-283.13 -733.76,-671.95l-2257.05 687.89c209.34,1210.28 1226.22,1957.97 2990.8,1957.97 2001.85,0 3046.64,-957.06 3046.64,-2466.41l0 -6625.65zm7032.4 8972.44l2452.47 0 -3244.05 -8972.44 -2556.15 0 -3244.02 8972.44 2466.41 0 494.48 -1567.2 3138.36 0 492.49 1567.2zm-3048.65 -3421.49l986.97 -3172.24 1000.94 3172.24 -1987.91 0zm8354.37 1435.59l0 -6986.54 -2285 0 0 8972.44 5140.21 0 0 -1985.9 -2855.2 0zm6615.65 2103.54c1714.75,0 3192.21,-1000.94 3192.21,-2719.66 0,-3407.52 -4057.54,-2556.12 -4057.54,-3913.95 0,-388.82 299.08,-568.27 656,-568.27 446.63,0 939.1,269.19 1415.65,777.61l1493.4 -1451.54c-701.83,-823.47 -1762.57,-1331.91 -2879.14,-1331.91 -1419.64,0 -2990.83,823.47 -2990.83,2737.59 0,3106.46 4077.49,2360.75 4077.49,3720.57 0,356.92 -297.09,612.12 -879.3,612.12 -773.61,0 -1401.71,-418.7 -1716.73,-1090.65l-1870.24 1164.44c598.15,1136.51 1916.1,2063.66 3559.04,2063.66zm9853.75 -117.64l2452.47 0 -3244.05 -8972.44 -2556.15 0 -3244.02 8972.44 2466.41 0 494.48 -1567.2 3138.36 0 492.49 1567.2zm-3048.65 -3421.49l986.97 -3172.24 1000.94 3172.24 -1987.91 0z"/>
 </g>
</svg>
